<svg width="32" height="32" viewBox="0 0 32 32" fill="none" xmlns="http://www.w3.org/2000/svg">
  <defs>
    <linearGradient id="streamly-grad" x1="0%" y1="0%" x2="100%" y2="100%">
      <stop offset="0%" stop-color="#818CF8" />
      <stop offset="50%" stop-color="#6366F1" />
      <stop offset="100%" stop-color="#7C3AED" />
    </linearGradient>
  </defs>

  <rect width="32" height="32" rx="8" fill="url(#streamly-grad)" />

  <path
    d="M 9 13 A 4.5 4.5 0 0 1 13.5 8.5"
    stroke="#FFFFFF"
    stroke-width="2"
    stroke-linecap="round"
    opacity="0.9"
  />
  <path
    d="M 7 10 A 8 8 0 0 1 15 2"
    stroke="#E0E7FF"
    stroke-width="2"
    stroke-linecap="round"
    opacity="0.75"
  />

  <path
    d="M 17 14 C 17 12 14.5 11.5 13 13 C 11.5 14.5 15.5 16 14 18 C 12.5 20 10 19 10 17"
    stroke="#FFFFFF"
    stroke-width="2.5"
    stroke-linecap="round"
    stroke-linejoin="round"
  />

  <path
    d="M 22 17 L 23 19.5 L 25.5 20.5 L 23 21.5 L 22 24 L 21 21.5 L 18.5 20.5 L 21 19.5 Z"
    fill="#FFFFFF"
  />
</svg>
